<!DOCTYPE svg PUBLIC "-//W3C//DTD SVG 1.1//EN" "http://www.w3.org/Graphics/SVG/1.1/DTD/svg11.dtd">
<!-- Uploaded to: SVG Repo, www.svgrepo.com, Transformed by: SVG Repo Mixer Tools -->
<svg fill="#000000" height="800px" width="800px" version="1.1" id="Layer_1" xmlns="http://www.w3.org/2000/svg" xmlns:xlink="http://www.w3.org/1999/xlink" viewBox="-102.4 -102.4 716.80 716.80" xml:space="preserve">
<g id="SVGRepo_bgCarrier" stroke-width="0"/>
<g id="SVGRepo_tracerCarrier" stroke-linecap="round" stroke-linejoin="round"/>
<g id="SVGRepo_iconCarrier"> <g> <g> <path d="M256,112c-48.112,0-87.248,39.136-87.248,87.248c0,7.92,1.056,15.76,3.152,23.328c0.816,2.976,1.808,5.904,2.912,8.704 l2.624,5.936L256,382.384l78.672-145.376l2.56-5.808c0.976-2.464,2.016-5.52,2.864-8.608c2.096-7.568,3.152-15.424,3.152-23.328 C343.248,151.136,304.112,112,256,112z M256,245.664c-26.16,0-47.36-21.2-47.36-47.36c0-26.16,21.2-47.36,47.36-47.36 c26.16,0,47.36,21.2,47.36,47.36C303.36,224.464,282.16,245.664,256,245.664z"/> </g> </g> <g> <g> <path d="M256,0C114.608,0,0,114.608,0,256s114.608,256,256,256s256-114.608,256-256S397.392,0,256,0z M355.504,226.848 c-1.024,3.68-2.24,7.28-3.632,10.784l-2.816,6.416L256,416l-92.928-171.712l-3.136-7.12c-1.328-3.36-2.48-6.8-3.456-10.32 c-2.432-8.784-3.744-18.048-3.744-27.6C152.752,142.224,198.976,96,256,96s103.248,46.224,103.248,103.248 C359.248,208.8,357.936,218.064,355.504,226.848z"/> </g> </g> </g>
</svg>